<svg id="Layer_1" data-name="Layer 1" xmlns="http://www.w3.org/2000/svg" xmlns:xlink="http://www.w3.org/1999/xlink" viewBox="0 0 383.42 344.76" width="406" height="306" class="illustration styles_illustrationTablet__1DWOa"><defs><linearGradient id="linear-gradient" x1="283.72" y1="303.17" x2="292.04" y2="303.17" gradientUnits="userSpaceOnUse"><stop offset="0.01"></stop><stop offset="0.83" stop-opacity="0.07"></stop><stop offset="1" stop-opacity="0"></stop></linearGradient><linearGradient id="linear-gradient-2" x1="285.71" y1="292.43" x2="279.75" y2="314.36" gradientTransform="translate(66.41 -50.28) rotate(11.52)" xlink:href="#linear-gradient"></linearGradient><linearGradient id="linear-gradient-3" x1="245.36" y1="278.78" x2="253.68" y2="278.78" xlink:href="#linear-gradient"></linearGradient><linearGradient id="linear-gradient-4" x1="247.36" y1="268.05" x2="241.4" y2="289.98" gradientTransform="translate(60.77 -43.11) rotate(11.52)" xlink:href="#linear-gradient"></linearGradient><linearGradient id="linear-gradient-5" x1="6823.11" y1="280.29" x2="6831.43" y2="280.29" gradientTransform="matrix(-1, 0, 0, 1, 7114.35, 0)" xlink:href="#linear-gradient"></linearGradient><linearGradient id="linear-gradient-6" x1="6825.1" y1="269.56" x2="6819.14" y2="291.48" gradientTransform="matrix(-0.2, -0.98, -0.98, 0.2, 1929.93, 6909.75)" xlink:href="#linear-gradient"></linearGradient><linearGradient id="linear-gradient-7" x1="6864.33" y1="302.99" x2="6872.65" y2="302.99" gradientTransform="matrix(-1, 0, 0, 1, 7114.35, 0)" xlink:href="#linear-gradient"></linearGradient><linearGradient id="linear-gradient-8" x1="6866.33" y1="292.26" x2="6860.37" y2="314.18" gradientTransform="matrix(-0.2, -0.98, -0.98, 0.2, 1919.18, 6968.31)" xlink:href="#linear-gradient"></linearGradient><linearGradient id="linear-gradient-9" x1="269.45" y1="314.75" x2="262.87" y2="232.28" xlink:href="#linear-gradient"></linearGradient><linearGradient id="linear-gradient-10" x1="263.26" y1="287.58" x2="268.4" y2="276.38" xlink:href="#linear-gradient"></linearGradient><linearGradient id="linear-gradient-11" x1="174.3" y1="289.95" x2="210.41" y2="289.95" xlink:href="#linear-gradient"></linearGradient><linearGradient id="linear-gradient-12" x1="211.5" y1="234.99" x2="267.37" y2="234.99" xlink:href="#linear-gradient"></linearGradient><linearGradient id="linear-gradient-13" x1="222.01" y1="251.7" x2="299.79" y2="251.7" xlink:href="#linear-gradient"></linearGradient><linearGradient id="linear-gradient-14" x1="252.85" y1="257.47" x2="302.31" y2="257.47" xlink:href="#linear-gradient"></linearGradient><linearGradient id="linear-gradient-15" x1="126.36" y1="282.51" x2="201.16" y2="126.34" xlink:href="#linear-gradient"></linearGradient><linearGradient id="linear-gradient-16" x1="222.01" y1="208.88" x2="111.67" y2="118.88" xlink:href="#linear-gradient"></linearGradient><linearGradient id="linear-gradient-17" x1="178.75" y1="138.47" x2="3.99" y2="285.13" gradientUnits="userSpaceOnUse"><stop offset="0.02" stop-color="#fff" stop-opacity="0"></stop><stop offset="0.39" stop-color="#fff" stop-opacity="0.39"></stop><stop offset="1" stop-color="#fff"></stop></linearGradient><linearGradient id="linear-gradient-18" x1="67.4" y1="-29.14" x2="231.87" y2="224.42" xlink:href="#linear-gradient-17"></linearGradient><linearGradient id="linear-gradient-19" x1="157.72" y1="180.26" x2="184.12" y2="180.26" xlink:href="#linear-gradient"></linearGradient><linearGradient id="linear-gradient-20" x1="138.15" y1="173.14" x2="158.21" y2="173.14" xlink:href="#linear-gradient"></linearGradient><linearGradient id="linear-gradient-21" x1="114.4" y1="197.39" x2="134.42" y2="155.6" xlink:href="#linear-gradient"></linearGradient><linearGradient id="linear-gradient-22" x1="150.13" y1="214.37" x2="208.79" y2="91.9" xlink:href="#linear-gradient"></linearGradient><linearGradient id="linear-gradient-23" x1="248.56" y1="134.98" x2="224.31" y2="168.27" xlink:href="#linear-gradient"></linearGradient><linearGradient id="linear-gradient-24" x1="221.57" y1="181.6" x2="196.09" y2="205.85" xlink:href="#linear-gradient"></linearGradient><linearGradient id="linear-gradient-25" x1="268.9" y1="181.45" x2="243.2" y2="135.53" xlink:href="#linear-gradient"></linearGradient><linearGradient id="linear-gradient-26" x1="262.77" y1="218.87" x2="233.07" y2="185.97" xlink:href="#linear-gradient"></linearGradient><linearGradient id="linear-gradient-27" x1="270.48" y1="198.03" x2="315.03" y2="242.58" xlink:href="#linear-gradient"></linearGradient><linearGradient id="linear-gradient-28" x1="278.34" y1="203.38" x2="313.49" y2="238.52" xlink:href="#linear-gradient"></linearGradient><linearGradient id="linear-gradient-29" x1="276.5" y1="237.55" x2="305.28" y2="248.69" xlink:href="#linear-gradient"></linearGradient><linearGradient id="linear-gradient-30" x1="128.65" y1="173.52" x2="141.54" y2="146.59" xlink:href="#linear-gradient"></linearGradient><linearGradient id="linear-gradient-31" x1="198.2" y1="174.42" x2="198.2" y2="174.42" xlink:href="#linear-gradient"></linearGradient><linearGradient id="linear-gradient-32" x1="172.17" y1="189.49" x2="172.17" y2="189.49" xlink:href="#linear-gradient"></linearGradient><linearGradient id="linear-gradient-33" x1="152.72" y1="160.17" x2="152.72" y2="160.17" xlink:href="#linear-gradient"></linearGradient><linearGradient id="linear-gradient-34" x1="132.41" y1="184.13" x2="150.6" y2="184.13" xlink:href="#linear-gradient"></linearGradient><linearGradient id="linear-gradient-35" x1="176.84" y1="131.24" x2="226.86" y2="131.24" xlink:href="#linear-gradient"></linearGradient><linearGradient id="linear-gradient-36" x1="184.68" y1="202.52" x2="155.71" y2="164.3" xlink:href="#linear-gradient"></linearGradient><linearGradient id="linear-gradient-37" x1="209.74" y1="134.71" x2="225.65" y2="134.71" xlink:href="#linear-gradient"></linearGradient></defs><title>Architect</title><path d="M397.68,156.09c.11,21.56-10,41.15-20,60.62-2.9,5.65-5.79,11.29-8.42,17C359.68,254.36,353,277,337.87,294.09c-10.75,12.13-25,20.48-39.13,28.45-17.19,9.69-34.94,19.25-54.39,22.64-33.86,5.91-60.46-10.32-92.34-16.3-27.3-5.11-56.15.54-81.59-13.41-10.11-5.54-18.53-13.73-25.78-22.69a140.2,140.2,0,0,1-13-19,131.43,131.43,0,0,1-17.3-59.11c-1.18-28.4,8-57.35,26.41-79,12.54-14.75,28.8-25.76,43.68-38.14,24.15-20,45-43.92,69.66-63.28S209-.16,240.3,1.88c26.58,1.73,50.7,15.38,73.76,28.7,14.22,8.21,28.65,16.58,39.91,28.51,11,11.68,18.51,26.21,25.72,40.58C388.63,117.48,397.58,136.16,397.68,156.09Z" transform="translate(-14.27 -1.69)" fill="#68e1fd" opacity="0.25" style="isolation: isolate;"></path><path d="M377.68,216.71c-2.9,5.65-5.79,11.29-8.42,17C359.68,254.36,353,277,337.87,294.09c-10.75,12.13-25,20.48-39.13,28.45-17.19,9.69-34.94,19.25-54.39,22.64-33.86,5.91-60.46-10.32-92.34-16.3-27.3-5.11-56.15.54-81.59-13.41-10.11-5.54-18.53-13.73-25.78-22.69a140.2,140.2,0,0,1-13-19c23.51-54.51,104-94.65,199.56-94.65C288.47,179.08,340.28,193.47,377.68,216.71Z" transform="translate(-14.27 -1.69)" fill="#68e1fd" opacity="0.43" style="isolation: isolate;"></path><path d="M289.42,302c.59,2.93-.22,5.57-1.81,5.89-.4.08-3.32,1.41-3.72,1.21-1.2-.59.2-3.73-.25-5.92s-3-3.49-2.17-4.5a21.08,21.08,0,0,1,4-1.39C287,297,288.82,299.05,289.42,302Z" transform="translate(-14.27 -1.69)" fill="#3f3d56"></path><path d="M289.42,302c.59,2.93-.22,5.57-1.81,5.89-.4.08-3.32,1.41-3.72,1.21-1.2-.59.2-3.73-.25-5.92s-3-3.49-2.17-4.5a21.08,21.08,0,0,1,4-1.39C287,297,288.82,299.05,289.42,302Z" transform="translate(-14.27 -1.69)" fill="url(#linear-gradient)"></path><ellipse cx="282.81" cy="303.78" rx="2.95" ry="5.41" transform="translate(-69.22 60.88) rotate(-11.52)" fill="#3f3d56"></ellipse><ellipse cx="282.81" cy="303.78" rx="2.95" ry="5.41" transform="translate(-69.22 60.88) rotate(-11.52)" fill="#3f3d56"></ellipse><ellipse cx="282.52" cy="304.19" rx="1.83" ry="3.36" transform="translate(-69.3 60.83) rotate(-11.52)" fill="url(#linear-gradient-2)"></ellipse><path d="M251.06,277.6c.6,2.92-.21,5.56-1.81,5.89-.4.08-3.32,1.4-3.72,1.21-1.2-.6.2-3.73-.25-5.93s-3-3.48-2.16-4.5a21.68,21.68,0,0,1,4-1.38C248.69,272.56,250.46,274.67,251.06,277.6Z" transform="translate(-14.27 -1.69)" fill="#3f3d56"></path><path d="M251.06,277.6c.6,2.92-.21,5.56-1.81,5.89-.4.08-3.32,1.4-3.72,1.21-1.2-.6.2-3.73-.25-5.93s-3-3.48-2.16-4.5a21.68,21.68,0,0,1,4-1.38C248.69,272.56,250.46,274.67,251.06,277.6Z" transform="translate(-14.27 -1.69)" fill="url(#linear-gradient-3)"></path><ellipse cx="244.45" cy="279.4" rx="2.95" ry="5.41" transform="translate(-65.12 52.73) rotate(-11.52)" fill="#3f3d56"></ellipse><ellipse cx="244.45" cy="279.4" rx="2.95" ry="5.41" transform="translate(-65.12 52.73) rotate(-11.52)" fill="#3f3d56"></ellipse><ellipse cx="244.16" cy="279.81" rx="1.83" ry="3.36" transform="translate(-65.21 52.68) rotate(-11.52)" fill="url(#linear-gradient-4)"></ellipse><path d="M285.54,279.1c-.6,2.93.21,5.57,1.81,5.89.4.08,3.31,1.41,3.71,1.21,1.21-.59-.19-3.72.26-5.92s3-3.48,2.16-4.5a21,21,0,0,0-4-1.39C287.91,274.07,286.14,276.18,285.54,279.1Z" transform="translate(-14.27 -1.69)" fill="#3f3d56"></path><path d="M285.54,279.1c-.6,2.93.21,5.57,1.81,5.89.4.08,3.31,1.41,3.71,1.21,1.21-.59-.19-3.72.26-5.92s3-3.48,2.16-4.5a21,21,0,0,0-4-1.39C287.91,274.07,286.14,276.18,285.54,279.1Z" transform="translate(-14.27 -1.69)" fill="url(#linear-gradient-5)"></path><ellipse cx="292.14" cy="280.9" rx="5.41" ry="2.95" transform="translate(-55.69 509.4) rotate(-78.48)" fill="#3f3d56"></ellipse><ellipse cx="292.14" cy="280.9" rx="5.41" ry="2.95" transform="translate(-55.69 509.4) rotate(-78.48)" fill="#3f3d56"></ellipse><ellipse cx="292.44" cy="281.31" rx="3.36" ry="1.83" transform="translate(-55.86 510.01) rotate(-78.48)" fill="url(#linear-gradient-6)"></ellipse><path d="M244.32,301.8c-.6,2.93.21,5.57,1.81,5.89.39.08,3.31,1.41,3.71,1.21,1.2-.59-.19-3.72.25-5.92s3-3.48,2.17-4.5a21.08,21.08,0,0,0-4-1.39C246.69,296.77,244.91,298.88,244.32,301.8Z" transform="translate(-14.27 -1.69)" fill="#3f3d56"></path><path d="M244.32,301.8c-.6,2.93.21,5.57,1.81,5.89.39.08,3.31,1.41,3.71,1.21,1.2-.59-.19-3.72.25-5.92s3-3.48,2.17-4.5a21.08,21.08,0,0,0-4-1.39C246.69,296.77,244.91,298.88,244.32,301.8Z" transform="translate(-14.27 -1.69)" fill="url(#linear-gradient-7)"></path><ellipse cx="250.92" cy="303.6" rx="5.41" ry="2.95" transform="translate(-110.93 487.17) rotate(-78.48)" fill="#3f3d56"></ellipse><ellipse cx="250.92" cy="303.6" rx="5.41" ry="2.95" transform="translate(-110.93 487.17) rotate(-78.48)" fill="#3f3d56"></ellipse><ellipse cx="251.21" cy="304.01" rx="3.36" ry="1.83" transform="translate(-111.09 487.79) rotate(-78.48)" fill="url(#linear-gradient-8)"></ellipse><path d="M263.08,278l-12.89-7.91a11.36,11.36,0,0,0-4.74-2c-1.73-.15-3.67.74-4.12,2.41-.72,2.63,2.33,4.58,4.8,5.73a65.26,65.26,0,0,1,11.57,7,1.4,1.4,0,0,1,.62.76c.14.67-.65,1.11-1.3,1.34A88.09,88.09,0,0,0,242.34,292a7.72,7.72,0,0,0-2.32,1.75c-2,2.47-.56,6.09.92,8.88a3,3,0,0,0,1.37,1.56,2.81,2.81,0,0,0,1.91-.15c7.56-2.57,13.08-9.23,20.44-12.32a7.29,7.29,0,0,1,3.26-.73,8.16,8.16,0,0,1,2.63.79,67,67,0,0,1,14.31,8.53c2.06,1.61,4.77,3.43,7,2.15,2-1.11,2.16-4.05,1-6s-3.24-3.09-5.22-4.17l-12.76-6.92,17.44-7.85a5.3,5.3,0,0,0,2.32-1.6c1.07-1.56.21-3.68-.68-5.36a4.07,4.07,0,0,0-1.69-2c-1-.48-2.26,0-3.3.49a116.28,116.28,0,0,0-17.38,10.11c.85-3.15-.21-6.47-1.26-9.56l-1.87-5.48c-1.46-4.29-2.8-.32-3.08,1.77C264.88,269.94,263.85,274,263.08,278Z" transform="translate(-14.27 -1.69)" fill="#68e1fd"></path><path d="M263.08,278l-12.89-7.91a11.36,11.36,0,0,0-4.74-2c-1.73-.15-3.67.74-4.12,2.41-.72,2.63,2.33,4.58,4.8,5.73a65.26,65.26,0,0,1,11.57,7,1.4,1.4,0,0,1,.62.76c.14.67-.65,1.11-1.3,1.34A88.09,88.09,0,0,0,242.34,292a7.72,7.72,0,0,0-2.32,1.75c-2,2.47-.56,6.09.92,8.88a3,3,0,0,0,1.37,1.56,2.81,2.81,0,0,0,1.91-.15c7.56-2.57,13.08-9.23,20.44-12.32a7.29,7.29,0,0,1,3.26-.73,8.16,8.16,0,0,1,2.63.79,67,67,0,0,1,14.31,8.53c2.06,1.61,4.77,3.43,7,2.15,2-1.11,2.16-4.05,1-6s-3.24-3.09-5.22-4.17l-12.76-6.92,17.44-7.85a5.3,5.3,0,0,0,2.32-1.6c1.07-1.56.21-3.68-.68-5.36a4.07,4.07,0,0,0-1.69-2c-1-.48-2.26,0-3.3.49a116.28,116.28,0,0,0-17.38,10.11c.85-3.15-.21-6.47-1.26-9.56l-1.87-5.48c-1.46-4.29-2.8-.32-3.08,1.77C264.88,269.94,263.85,274,263.08,278Z" transform="translate(-14.27 -1.69)" fill="url(#linear-gradient-9)"></path><path d="M263.89,285.19a3.72,3.72,0,0,0,1.64,1,3.63,3.63,0,0,0,3.89-.74,4.75,4.75,0,0,0,.82-2,38.11,38.11,0,0,0,.46-13.3c-1.48,0-3.09-.07-4.29.8C263.46,273,261.24,282.27,263.89,285.19Z" transform="translate(-14.27 -1.69)" fill="url(#linear-gradient-10)"></path><path d="M188.14,285.68c-2.51.7-5.15.83-7.72,1.31s-5.4,1.69-6,4.22c-.57,2.37,1.21,4.71,3.28,6,3.6,2.26,8.08,2.5,12.32,2.4a96.71,96.71,0,0,0,18.26-2.19,3,3,0,0,0,1.68-.79,2.91,2.91,0,0,0,.46-1.91,46.5,46.5,0,0,0-1.25-10.44,4.69,4.69,0,0,0-1.75-3.14,4.82,4.82,0,0,0-2.41-.5c-2.78-.08-7.88-1-10.3.43S191.28,284.82,188.14,285.68Z" transform="translate(-14.27 -1.69)" fill="#3f3d56"></path><path d="M188.14,285.68c-2.51.7-5.15.83-7.72,1.31s-5.4,1.69-6,4.22c-.57,2.37,1.21,4.71,3.28,6,3.6,2.26,8.08,2.5,12.32,2.4a96.71,96.71,0,0,0,18.26-2.19,3,3,0,0,0,1.68-.79,2.91,2.91,0,0,0,.46-1.91,46.5,46.5,0,0,0-1.25-10.44,4.69,4.69,0,0,0-1.75-3.14,4.82,4.82,0,0,0-2.41-.5c-2.78-.08-7.88-1-10.3.43S191.28,284.82,188.14,285.68Z" transform="translate(-14.27 -1.69)" fill="url(#linear-gradient-11)"></path><path d="M233.68,202.39c-4.29-1.56-9.24-2.81-13.23-.62-5.13,2.8-6.09,9.63-6.44,15.47q-1.22,20-2.42,39.95c-.16,2.68-.27,5.57,1.19,7.82,2,3.09,6.14,3.81,9.8,4.25,1.7.2,3.62.34,4.91-.79a6.08,6.08,0,0,0,1.56-3.34,178.31,178.31,0,0,0,4.34-31.27,31,31,0,0,0,17.9,10.89,11.38,11.38,0,0,0,5.47.05,11,11,0,0,0,5.29-4,24.82,24.82,0,0,0,5.26-13.54c.38-5.06-1.07-6.49-4.93-9.31A116,116,0,0,0,233.68,202.39Z" transform="translate(-14.27 -1.69)" fill="#3f3d56"></path><path d="M233.68,202.39c-4.29-1.56-9.24-2.81-13.23-.62-5.13,2.8-6.09,9.63-6.44,15.47q-1.22,20-2.42,39.95c-.16,2.68-.27,5.57,1.19,7.82,2,3.09,6.14,3.81,9.8,4.25,1.7.2,3.62.34,4.91-.79a6.08,6.08,0,0,0,1.56-3.34,178.31,178.31,0,0,0,4.34-31.27,31,31,0,0,0,17.9,10.89,11.38,11.38,0,0,0,5.47.05,11,11,0,0,0,5.29-4,24.82,24.82,0,0,0,5.26-13.54c.38-5.06-1.07-6.49-4.93-9.31A116,116,0,0,0,233.68,202.39Z" transform="translate(-14.27 -1.69)" fill="url(#linear-gradient-12)"></path><path d="M258.05,277.63l41.46-38.72c3.69-2.13-31-15.23-34.71-13.1l-36.11,20.85C225,248.79,222,254.5,222,259.41h0C222,264.32,254.37,279.76,258.05,277.63Z" transform="translate(-14.27 -1.69)" fill="#68e1fd"></path><path d="M258.05,277.63l41.46-38.72c3.69-2.13-31-15.23-34.71-13.1l-36.11,20.85C225,248.79,222,254.5,222,259.41h0C222,264.32,254.37,279.76,258.05,277.63Z" transform="translate(-14.27 -1.69)" fill="url(#linear-gradient-13)"></path><path d="M259.52,276.79l36.12-20.85c3.68-2.13,6.67-7.84,6.67-12.75h0c0-4.91-3-7.17-6.67-5L259.52,259c-3.68,2.12-6.67,7.83-6.67,12.74h0C252.85,276.66,255.84,278.91,259.52,276.79Z" transform="translate(-14.27 -1.69)" fill="#68e1fd"></path><path d="M259.52,276.79l36.12-20.85c3.68-2.13,6.67-7.84,6.67-12.75h0c0-4.91-3-7.17-6.67-5L259.52,259c-3.68,2.12-6.67,7.83-6.67,12.74h0C252.85,276.66,255.84,278.91,259.52,276.79Z" transform="translate(-14.27 -1.69)" fill="url(#linear-gradient-14)"></path><path d="M213.69,220.45c-4.74-.44-9.6-.69-14.21.54s-9,4.19-10.8,8.59c-1.25,3-1.23,6.31-1.17,9.54q.27,14,1.35,28c.38,4.89.84,9.82,2.44,14.45a9,9,0,0,0,2.17,3.79,8.3,8.3,0,0,0,3.75,1.77,20.88,20.88,0,0,0,7.26.48,5.45,5.45,0,0,0,2.45-.72c1.31-.88,1.75-2.58,2-4.14,2-13.12-2.45-26.78.7-39.68,15,7.2,31.4,12.17,48,11.3,2.58-.13,13.73-1.87,16.09-2.93,7.08-3.2,14.62-11.69,13.7-15.54S265,234.83,262,232.23c-5.7-5-12.53-5.93-19.64-7.35A273.93,273.93,0,0,0,213.69,220.45Z" transform="translate(-14.27 -1.69)" fill="#3f3d56"></path><polygon points="44.14 203.28 44.14 212.45 121.74 267.52 311.2 147.52 311.06 142.04 44.14 203.28" fill="#68e1fd"></polygon><polygon points="44.14 203.28 44.14 212.45 121.74 267.52 311.2 147.52 311.06 142.04 44.14 203.28" fill="url(#linear-gradient-15)"></polygon><polygon points="96.53 177.38 44.14 203.28 121.81 258.75 311.06 142.04 272.43 122.31 96.53 177.38" fill="#68e1fd"></polygon><polygon points="96.53 177.38 44.14 203.28 121.81 258.75 311.06 142.04 272.43 122.31 96.53 177.38" fill="url(#linear-gradient-16)"></polygon><polygon points="55.44 132.59 134.71 249.33 291.19 157.26 294.15 149.5 57.72 126.88 55.44 132.59" fill="#68e1fd"></polygon><polygon points="55.44 132.59 134.71 249.33 291.19 157.26 294.15 149.5 57.72 126.88 55.44 132.59" fill="url(#linear-gradient-17)"></polygon><polygon points="57.72 126.88 220.14 37.79 294.15 149.5 136.53 242.7 57.72 126.88" fill="#68e1fd"></polygon><polygon points="57.72 126.88 220.14 37.79 294.15 149.5 136.53 242.7 57.72 126.88" fill="url(#linear-gradient-18)"></polygon><line x1="157.91" y1="187.79" x2="183.93" y2="172.73" fill="none" stroke-miterlimit="10" stroke-width="0.73" stroke="url(#linear-gradient-19)"></line><line x1="138.45" y1="158.48" x2="157.91" y2="187.79" fill="none" stroke-miterlimit="10" stroke-width="0.73" stroke="url(#linear-gradient-20)"></line><line x1="97.08" y1="138.07" x2="151.74" y2="214.92" fill="none" stroke-miterlimit="10" stroke-width="0.73" stroke="url(#linear-gradient-21)"></line><polygon points="187.9 176.01 209.69 162.04 204.21 155.47 127.29 200.12 132.15 208.07 187.9 176.01" fill="#68e1fd"></polygon><polyline points="151.74 214.92 275.03 140.12 256.73 115.39 163.25 170.12 129.96 120.81 97.08 138.07" fill="none" stroke-miterlimit="10" stroke-width="0.73" stroke="url(#linear-gradient-22)"></polyline><path d="M223.18,158.3c-3.55-4.63-6.65-9.92-11.71-12.82a4.29,4.29,0,0,0,2.45-4.8c-.36-1.48-1.21-3.62.25-4.09a2,2,0,0,1,1,0c7.67,1.55,12.2,9.35,18.71,13.68,1.73,1.14,3.62,2.05,5.25,3.33a28.36,28.36,0,0,1,3.66,3.69l11.47,13a2,2,0,0,1,.72,1.64c-.11.56-.66.91-1.16,1.2-2.14,1.22-6,4.6-8.58,4.58s-5.79-3.59-7.66-5.08C232.36,168.44,227.15,163.76,223.18,158.3Z" transform="translate(-14.27 -1.69)" fill="url(#linear-gradient-23)"></path><path d="M198.11,200a21.77,21.77,0,0,1-5.85-9.3,3.85,3.85,0,0,1,.08-3.35,3.79,3.79,0,0,1,2.79-1.22,14.06,14.06,0,0,1,6.59.79c2.6,1,4.73,2.95,6.8,4.83,4,3.64,16.1,11.44,7.69,16.79C209.54,212.8,202.47,204.1,198.11,200Z" transform="translate(-14.27 -1.69)" fill="url(#linear-gradient-24)"></path><path d="M202.17,177.7a1,1,0,0,0-.58.08c-.62.34-.29,1.27-.36,2a2.07,2.07,0,0,1-2.38,1.59,6,6,0,0,1-2.8-1.46,3.92,3.92,0,0,0-2.84-1.17,3.65,3.65,0,0,0-1.15.44,5.74,5.74,0,0,0-2.72,2.24,4.07,4.07,0,0,0-.34,2c.11,3.49,2.73,6.52,5.86,8.06s6.71,1.87,10.19,2c3.78.14,4.59-4.77,3.42-7.58C207.47,183.39,205.19,178,202.17,177.7Z" transform="translate(-14.27 -1.69)" fill="#e8b08d"></path><path d="M220.29,134.07a10.7,10.7,0,0,0-8.28-.47,2.56,2.56,0,0,0-1.2.83,2.78,2.78,0,0,0,.21,2.72,20.46,20.46,0,0,0,2.21,3.6,8.19,8.19,0,0,1,1,1.29,13.41,13.41,0,0,1,.56,2.37,2.08,2.08,0,0,0,.42,1,1.84,1.84,0,0,0,.65.41,13.88,13.88,0,0,1,2.52,1c.31.21.58.47.91.66.63.36,1.63.17,2.37.35a6.55,6.55,0,0,0,3,.22c2.7-.59,4-4.5,3.12-6.93C226.64,138.17,223.07,135.36,220.29,134.07Z" transform="translate(-14.27 -1.69)" fill="#e8b08d"></path><path d="M261.38,150.48c-4.23,1.22-8.65,2.91-12.9,1.77-2.86-.77-5.21-2.72-7.56-4.53a100.21,100.21,0,0,0-8.9-6.12,5.26,5.26,0,0,0-2.62-1c-1.38,0-2.53,1-3.52,2-2.74,2.6-5.71,6.39-3.95,9.74a8.79,8.79,0,0,0,3.56,3.12q7.29,4.31,14.71,8.4a23.5,23.5,0,0,0,5.79,2.54,24.24,24.24,0,0,0,5.71.44l11.18,0a39.37,39.37,0,0,0,10.84-1c3.5-1,6.83-3.18,8.42-6.46C289.15,144.75,268,148.6,261.38,150.48Z" transform="translate(-14.27 -1.69)" fill="#68e1fd"></path><path d="M261.38,150.48c-4.23,1.22-8.65,2.91-12.9,1.77-2.86-.77-5.21-2.72-7.56-4.53a100.21,100.21,0,0,0-8.9-6.12,5.26,5.26,0,0,0-2.62-1c-1.38,0-2.53,1-3.52,2-2.74,2.6-5.71,6.39-3.95,9.74a8.79,8.79,0,0,0,3.56,3.12q7.29,4.31,14.71,8.4a23.5,23.5,0,0,0,5.79,2.54,24.24,24.24,0,0,0,5.71.44l11.18,0a39.37,39.37,0,0,0,10.84-1c3.5-1,6.83-3.18,8.42-6.46C289.15,144.75,268,148.6,261.38,150.48Z" transform="translate(-14.27 -1.69)" fill="url(#linear-gradient-25)"></path><path d="M296,220.43c-2.21,8.76-6.94,17.15-14.36,22.31S263.94,249.3,256,245a15.67,15.67,0,0,1-7.82-9.23,23.88,23.88,0,0,1-.59-6.32q-.1-23.38,1.44-46.73c.24-3.56.52-7.2,1.86-10.51,1.55-3.79,4.36-6.88,7.12-9.87l.78-.84c4.15-4.57,9.49-10.54,15-12.43,4-1.37,8-.61,11.74,4.35,8.35,11.07,10.81,26.65,11.88,40.08C298.11,202.48,298.22,211.67,296,220.43Z" transform="translate(-14.27 -1.69)" fill="#68e1fd"></path><path d="M242.49,181.56a60.61,60.61,0,0,1-12.58,13.49,3,3,0,0,1-1.3.7,3,3,0,0,1-2-.63L209.31,184.7a38.83,38.83,0,0,0-4.45,7.08c-.76,1.55-1.42,3.33-.88,5a7.29,7.29,0,0,0,2.94,3.27,155.61,155.61,0,0,0,18.46,11.52c2.29,1.22,4.72,2.4,7.31,2.44,4.58.07,8.37-3.37,11.63-6.59,5.27-5.21,10.63-10.59,13.72-17.32,2.24-4.86,4.89-17.28-1.17-20.84C251.11,165.84,245,178,242.49,181.56Z" transform="translate(-14.27 -1.69)" fill="#68e1fd"></path><path d="M242.49,181.56a60.61,60.61,0,0,1-12.58,13.49,3,3,0,0,1-1.3.7,3,3,0,0,1-2-.63L209.31,184.7a38.83,38.83,0,0,0-4.45,7.08c-.76,1.55-1.42,3.33-.88,5a7.29,7.29,0,0,0,2.94,3.27,155.61,155.61,0,0,0,18.46,11.52c2.29,1.22,4.72,2.4,7.31,2.44,4.58.07,8.37-3.37,11.63-6.59,5.27-5.21,10.63-10.59,13.72-17.32,2.24-4.86,4.89-17.28-1.17-20.84C251.11,165.84,245,178,242.49,181.56Z" transform="translate(-14.27 -1.69)" fill="url(#linear-gradient-26)"></path><path d="M273.76,149c-5.48,1.89-10.82,7.86-15,12.43-.79-2.5.36-7.27.16-9.43a29.56,29.56,0,0,1-.38-5.54,6.24,6.24,0,0,1,2.47-4.78,8.32,8.32,0,0,1,5-.92,5.82,5.82,0,0,1,1.94.33,5,5,0,0,1,1.63,1.35A24.26,24.26,0,0,1,273.76,149Z" transform="translate(-14.27 -1.69)" fill="#e6b28b"></path><path d="M247.1,138.42a22.21,22.21,0,0,0,4.2,9.07c2.19,2.55,5.58,4.28,8.9,3.73a10.36,10.36,0,0,0,4.07-1.73,19.83,19.83,0,0,0,7.55-11.21,42.16,42.16,0,0,0,1.07-13.68c-.14-2.62-.43-5.35-1.9-7.52-1.69-2.5-4.72-3.84-7.72-4.26a46.62,46.62,0,0,0-9.07.1,16.76,16.76,0,0,0-5.65.9c-4.2,1.79-3.37,6.89-3.32,10.67A58.55,58.55,0,0,0,247.1,138.42Z" transform="translate(-14.27 -1.69)" fill="#e8b08d"></path><path d="M258.23,95.73a15.17,15.17,0,0,0-1.75.38,15.7,15.7,0,0,0-10.76,11.19c-1.47.22-3.07.5-4,1.63a4.22,4.22,0,0,0-.44,4.25c1.95,4.87,6.45,5.87,10,9a5.79,5.79,0,0,1,.51.48,12.32,12.32,0,0,1,3.13,6.83,29.71,29.71,0,0,1,.35,4q0,1,0,2c0,.62-.16,1.33.26,1.85a.6.6,0,0,0,.58.26c.3-.08.37-.47.38-.79a12.64,12.64,0,0,1,.28-3.19c.21-.72.7-2.1,1.66-2a1.42,1.42,0,0,1,.86.54,6.79,6.79,0,0,1-.63,9.35,4.82,4.82,0,0,1,5.12,2.89c.58,1.49.62,3.54,2.11,4.12a2.46,2.46,0,0,0,2.65-.9,7.16,7.16,0,0,0,1.19-2.72c1.29,1.52,4,.64,5-1.09s.83-3.85.79-5.84a59.54,59.54,0,0,1,2-14.77c1.69-7.14,1.2-12.22-2.58-18.69a20.87,20.87,0,0,0-3.36-4.5A15.75,15.75,0,0,0,258.23,95.73Z" transform="translate(-14.27 -1.69)" fill="#3f3d56"></path><path d="M299.11,187.44c-8.08,5.57-15.69,11.79-23.29,18-3,2.47-6.12,5-8,8.44-3.52,6.4-2,14.31-.06,21.35,1,3.7,2.8,8,6.56,8.77a8.93,8.93,0,0,0,4.07-.27c5.35-1.36,10.06-4.48,14.65-7.54,4.8-3.21,9.88-6.75,11.94-12.15a25,25,0,0,0,1.27-8.26,121.09,121.09,0,0,0-.89-18.55C305,193.89,305,183.35,299.11,187.44Z" transform="translate(-14.27 -1.69)" fill="#68e1fd"></path><path d="M306.3,215.79a25.52,25.52,0,0,1-1.27,8.26c-2.07,5.4-7.14,8.95-11.95,12.15-4.16,2.77-8.42,5.6-13.15,7.12-.49.16-1,.3-1.49.43a9.12,9.12,0,0,1-4.08.26c-3.76-.8-5.52-5.07-6.56-8.77-2-7-3.45-15,.07-21.35,1.87-3.42,5-6,8-8.43,7.61-6.21,15.22-12.43,23.29-18,3.64-2.52,5,.51,5.64,4,.37,2.17.47,4.52.63,5.79A121.09,121.09,0,0,1,306.3,215.79Z" transform="translate(-14.27 -1.69)" fill="url(#linear-gradient-27)"></path><path d="M306.3,215.79a25.52,25.52,0,0,1-1.27,8.26c-2.07,5.4-7.14,8.95-11.95,12.15-4.16,2.77-8.42,5.6-13.15,7.12a18,18,0,0,1-3.05-6.54c-2-7-3.45-14.94.06-21.34,1.88-3.42,5-6,8-8.45,6.5-5.32,13-10.63,19.84-15.54.37,2.17.47,4.52.63,5.79A121.09,121.09,0,0,1,306.3,215.79Z" transform="translate(-14.27 -1.69)" fill="url(#linear-gradient-28)"></path><path d="M297.32,217.23c-.71,12.34-2.41,41.12-2.95,43.27-.68,2.74-3.42,4.8-8.91,7.88a8.54,8.54,0,0,1-1.19.56c-5.14,2.05-10.45-.9-10.45-.9l8.9-4.8L287.26,225c.17-1.41,1.12-4.43,2.09-5.49l4.53-3.7A2,2,0,0,1,297.32,217.23Z" transform="translate(-14.27 -1.69)" fill="#68e1fd"></path><path d="M297.32,217.23c-.71,12.34-2.41,41.12-2.95,43.27-.68,2.74-3.42,4.8-8.91,7.88a8.54,8.54,0,0,1-1.19.56A4.4,4.4,0,0,0,285.8,267c.34-1.37,5.32-39.23,5-42.32S297.32,217.23,297.32,217.23Z" transform="translate(-14.27 -1.69)" fill="url(#linear-gradient-29)"></path><line x1="119.89" y1="169.1" x2="150.3" y2="151.01" fill="none" stroke-miterlimit="10" stroke-width="0.73" stroke="url(#linear-gradient-30)"></line><path d="M198.2,174.42" transform="translate(-14.27 -1.69)" fill="none" stroke-miterlimit="10" stroke-width="0.73" stroke="url(#linear-gradient-31)"></path><path d="M172.17,189.49" transform="translate(-14.27 -1.69)" fill="none" stroke-miterlimit="10" stroke-width="0.73" stroke="url(#linear-gradient-32)"></path><path d="M152.72,160.17" transform="translate(-14.27 -1.69)" fill="none" stroke-miterlimit="10" stroke-width="0.73" stroke="url(#linear-gradient-33)"></path><line x1="132.6" y1="189.61" x2="150.41" y2="178.65" fill="none" stroke-miterlimit="10" stroke-width="0.73" stroke="url(#linear-gradient-34)"></line><polyline points="193.87 154.3 177.36 129.71 213.8 108.48 226.54 132.31" fill="none" stroke-miterlimit="10" stroke-width="0.73" stroke="url(#linear-gradient-35)"></polyline><polygon points="129.96 201.77 206.26 157.66 204.21 155.47 127.29 200.12 129.96 201.77" fill="url(#linear-gradient-36)"></polygon><path d="M211.21,142.16l12.1-18.29a1.28,1.28,0,0,1,1.83-.32h0a1.29,1.29,0,0,1,.29,1.74l-12.6,18.65-3.09,2.19Z" transform="translate(-14.27 -1.69)" fill="#68e1fd"></path><path d="M211.21,142.16l12.1-18.29a1.28,1.28,0,0,1,1.83-.32h0a1.29,1.29,0,0,1,.29,1.74l-12.6,18.65-3.09,2.19Z" transform="translate(-14.27 -1.69)" fill="url(#linear-gradient-37)"></path><path d="M211.84,140.33a.7.7,0,0,0-.55,0,.67.67,0,0,0-.19.25,2.27,2.27,0,0,0-.29,1.73,2.48,2.48,0,0,0,1.38,1.28c.83.39,2.78,2,3.7,2.1.57.06.14-1.3.58-1.67a1.65,1.65,0,0,0,.51-1.31c0-1.46-.65-1.47-1.91-1.73Z" transform="translate(-14.27 -1.69)" fill="#e8b08d"></path></svg>